<mxfile host="app.diagrams.net" modified="2023-11-06T05:57:48.826Z" agent="Mozilla/5.0 (Windows NT 10.0; Win64; x64) AppleWebKit/537.36 (KHTML, like Gecko) Chrome/114.0.0.0 Safari/537.36" version="21.4.0" etag="TKWr48RN_3ZroUPsmoMt" type="github">
  <diagram name="Page-1" id="RMEXbWwHdrF6aBLYZRQv">
    <mxGraphModel>
      <root>
        <mxCell id="0" />
        <mxCell id="1" parent="0" />
      </root>
    </mxGraphModel>
  </diagram>
</mxfile>
